<svg width="360" height="360" viewBox="0 0 360 360" fill="none" xmlns="http://www.w3.org/2000/svg">
<circle cx="179.979" cy="179.979" r="179.979" fill="white"/>
<path d="M74.2627 163.151C77.3642 162.222 82.9259 161.933 100.868 162.041L100.859 163.366C100.855 163.939 100.368 164.392 99.7953 164.361C99.4286 164.342 99.0741 164.325 98.7304 164.31C93.0689 164.07 90.3482 164.502 84.9146 166.2C84.5042 166.328 84.2225 166.706 84.2161 167.136L83.591 209.019C83.5833 209.532 83.9753 209.969 84.4847 210.029C124.049 214.751 143.937 222.751 172.51 250.315C172.623 250.424 172.689 250.577 172.689 250.734C172.689 251.197 172.163 251.466 171.778 251.209C135.857 227.257 114.462 218.814 74.6271 219.22C74.0694 219.226 73.6023 218.776 73.6023 218.218V164.068C73.6023 163.649 73.8613 163.271 74.2627 163.151Z" fill="#023996"/>
<path d="M100.868 162.041C82.9259 161.933 77.3642 162.222 74.2627 163.151C73.8613 163.271 73.6023 163.649 73.6023 164.068V218.218C73.6023 218.776 74.0694 219.226 74.6271 219.22C114.462 218.814 135.857 227.257 171.778 251.209C172.163 251.466 172.689 251.197 172.689 250.734V250.734C172.689 250.577 172.623 250.424 172.51 250.315C143.937 222.751 124.049 214.751 84.4847 210.029C83.9753 209.969 83.5833 209.532 83.591 209.019L84.2161 167.136C84.2225 166.706 84.5042 166.328 84.9146 166.2C90.6781 164.399 93.3892 164.023 99.7953 164.361C100.368 164.392 100.855 163.939 100.859 163.366L100.868 162.041ZM100.868 162.041L98.7304 164.31" stroke="white" stroke-width="0.7"/>
<path d="M285.084 163.16C281.983 162.224 276.422 161.932 258.476 162.041L258.485 163.383C258.489 163.956 258.977 164.409 259.549 164.378C259.916 164.358 260.27 164.341 260.614 164.327C266.276 164.085 268.997 164.52 274.432 166.23C274.841 166.359 275.122 166.737 275.128 167.166L275.753 209.363C275.761 209.876 275.369 210.312 274.861 210.373C235.295 215.129 215.408 223.186 186.833 250.948C186.721 251.058 186.655 251.211 186.655 251.368C186.655 251.834 187.186 252.104 187.572 251.844C223.489 227.724 244.884 219.221 284.717 219.63C285.275 219.636 285.742 219.186 285.742 218.628V164.076C285.742 163.658 285.484 163.281 285.084 163.16Z" fill="#023996"/>
<path d="M258.476 162.041C276.422 161.932 281.983 162.224 285.084 163.16C285.484 163.281 285.742 163.658 285.742 164.076V218.628C285.742 219.186 285.275 219.636 284.717 219.63C244.884 219.221 223.489 227.724 187.572 251.844C187.186 252.104 186.655 251.834 186.655 251.368V251.368C186.655 251.211 186.721 251.058 186.833 250.948C215.408 223.186 235.295 215.129 274.861 210.373C275.369 210.312 275.761 209.876 275.753 209.363L275.128 167.166C275.122 166.737 274.841 166.359 274.432 166.23C268.667 164.416 265.956 164.037 259.549 164.378C258.977 164.409 258.489 163.956 258.485 163.383L258.476 162.041ZM258.476 162.041L260.614 164.327" stroke="white" stroke-width="0.7"/>
<path d="M47.4 191.647L60.3003 181.972V240.81C60.3003 241.367 60.7723 241.817 61.3297 241.811C126.687 241.128 152.85 257.684 179.972 281.121C180.365 281.461 180.962 281.439 181.335 281.079C214.748 248.872 239.708 239.099 297.311 241.772C297.882 241.799 298.376 241.344 298.376 240.773V180.642L312.617 191.647C312.862 191.836 313.006 192.128 313.006 192.438V261.217C313.006 261.848 312.407 262.318 311.787 262.194C244.162 248.75 218.319 260.004 181.31 292.465C180.943 292.787 180.382 292.797 180.002 292.491C138.867 259.356 109.631 253.038 48.1028 258.352C47.5181 258.403 47 257.943 47 257.356V192.447C47 192.132 47.1482 191.836 47.4 191.647Z" fill="#023996" stroke="white" stroke-width="0.2"/>
<path d="M229.262 143.878C215.696 181.783 213.035 188.833 208.912 196.148C206.651 199.872 205.321 203.064 205.986 203.064C208.513 203.064 213.168 198.675 216.228 193.355C220.218 186.439 246.153 116.903 246.419 112.248L230.193 111.558C216.893 111.292 214.632 111.558 212.769 113.553C211.572 114.883 206.119 128.715 200.533 144.41C189.893 174.468 188.297 177.793 183.243 181.251C180.583 182.847 179.386 182.98 177.125 181.783C173.8 180.054 169.145 172.739 169.145 169.414C169.145 165.69 165.819 167.552 165.42 171.542C164.888 175.532 169.145 184.443 173.401 188.434C175.13 189.897 178.056 191.094 180.583 191.094C187.898 191.094 190.558 190.055 200.533 166.115L217.824 119.006C218.622 117.436 222.08 116.612 229.661 116.612C238.838 116.612 239.636 116.878 238.439 119.006C237.774 120.203 233.651 131.508 229.262 143.878Z" fill="#B40000"/>
<path d="M138.937 199.572C138.405 197.577 138.139 195.981 138.405 195.848C142.794 193.986 144.524 191.06 150.11 175.1C164.075 135.598 164.341 134.8 168.331 137.327C171.124 139.056 183.626 167.12 182.695 169.381C181.099 173.903 177.641 170.578 172.587 159.538C169.661 153.021 166.868 148.632 166.203 149.297C165.538 149.962 161.415 161.001 156.76 173.77C152.238 186.538 147.716 198.375 146.652 200.104C143.991 204.227 140.001 203.961 138.937 199.572Z" fill="#B40000"/>
<path d="M112.175 201.908C111.111 200.179 142.793 119.774 146.783 113.656C153.406 106.811 155.401 108.806 149.443 114.986C146.384 121.37 123.109 185.079 121.513 191.463L120.582 195.054C120.582 195.054 121.779 195.923 130.131 195.923C138.483 195.923 144.256 195.054 144.256 195.054L146.65 188.404C147.98 184.813 149.576 181.754 150.374 181.754C151.039 181.754 151.305 181.222 150.773 180.557C150.374 179.892 150.64 178.961 151.438 178.429C153.301 177.232 153.168 177.897 149.31 189.867C147.315 196.251 144.921 200.906 143.458 201.704C147.421 205.233 113.239 203.637 112.175 201.908Z" fill="#B40000"/>
<path d="M80.2587 149.123C80.1257 147.926 81.7218 142.207 83.8498 136.487C97.0672 95.6904 130.302 70.4628 175.888 66.2619C192.513 64.9319 209.671 68.656 227.36 77.7002C250.369 89.1384 266.729 107.094 276.571 131.433C282.423 145.665 282.157 149.788 276.172 137.418C268.591 121.458 260.212 110.02 250.502 102.306C226.429 83.1533 203.153 75.1731 175.888 76.6361C158.331 77.7002 149.287 80.0942 133.327 87.9414C122.554 93.1285 116.713 98.1354 107.923 106.828C95.2732 119.338 87.8399 130.502 82.6528 144.734C81.4557 148.458 80.2587 150.32 80.2587 149.123Z" fill="#EC7941"/>
<path d="M113.502 202.137C113.502 200.94 118.024 187.906 123.477 173.143C128.931 158.512 135.714 140.025 138.64 132.178C141.433 124.331 145.29 115.818 146.886 113.291C150.876 107.572 156.861 104.247 162.048 104.912L166.038 105.311L160.452 108.37C156.994 110.232 153.536 113.424 151.541 116.882C147.684 123.533 122.812 190.167 122.812 193.891C122.812 195.354 126.403 195.935 127.468 195.935C128.532 195.935 126.802 197.083 126.802 197.748C126.802 198.546 125.206 199.078 123.344 199.078C121.083 199.078 123.876 198.063 123.477 199.925C122.546 203.25 116.827 203.25 113.502 202.137Z" fill="#B40000"/>
</svg>
