<svg width="274" height="73" viewBox="0 0 274 73" fill="none" xmlns="http://www.w3.org/2000/svg">
<path d="M14.8463 32.5627C15.8172 32.415 17.5613 32.3698 21.4783 32.3929C21.4761 32.7138 21.2195 32.9709 20.9017 32.9949C20.8774 32.9968 20.8526 32.9972 20.8277 32.9962C19.557 32.947 18.8328 33.0261 17.746 33.3274C17.2736 33.4584 16.9544 33.8873 16.9471 34.3701L16.7985 44.1691C16.7897 44.7451 17.2258 45.2335 17.8067 45.3059C28.0381 46.5806 33.3629 48.7901 40.9326 55.9733C40.9633 56.0024 40.9813 56.0432 40.9813 56.0851C40.9813 56.2088 40.8383 56.2807 40.7337 56.212C31.2477 49.9899 25.4921 47.6856 15.2335 47.6634C14.5968 47.662 14.0742 47.1579 14.0742 46.5314V33.5315C14.0742 33.0609 14.3734 32.6346 14.8463 32.5627Z" fill="white"/>
<path d="M21.4783 32.3929C17.5613 32.3698 15.8172 32.415 14.8463 32.5627C14.3734 32.6346 14.0742 33.0609 14.0742 33.5315V46.5314C14.0742 47.1579 14.5968 47.662 15.2335 47.6634C25.4921 47.6856 31.2477 49.9899 40.7337 56.212C40.8383 56.2807 40.9813 56.2088 40.9813 56.0851C40.9813 56.0432 40.9633 56.0024 40.9326 55.9733C33.3629 48.7901 28.0381 46.5806 17.8067 45.3059C17.2258 45.2335 16.7897 44.7451 16.7985 44.1691L16.9471 34.3701C16.9544 33.8873 17.2736 33.4584 17.746 33.3274C18.8328 33.0261 19.557 32.947 20.8277 32.9962C21.1787 33.0098 21.4759 32.7384 21.4783 32.3929ZM21.4783 32.3929L20.8977 32.999" stroke="white"/>
<path d="M70.9106 32.5643C69.9401 32.4154 68.1963 32.3696 64.2764 32.393C64.2786 32.7146 64.5345 32.9725 64.8524 32.9988C64.8784 33.0009 64.9048 33.0016 64.9316 33.0006C66.2002 32.9514 66.9242 33.0312 68.0108 33.3348C68.4822 33.4665 68.8003 33.8949 68.8075 34.3769L68.9565 44.2619C68.965 44.8375 68.5296 45.3255 67.949 45.3984C57.7169 46.6822 52.392 48.9074 44.822 56.1426C44.7914 56.1718 44.7734 56.2125 44.7734 56.2545C44.7734 56.3791 44.9175 56.4512 45.0225 56.3818C54.5076 50.1158 60.2631 47.7953 70.5211 47.7729C71.1578 47.7716 71.6805 47.2673 71.6805 46.641V33.5322C71.6805 33.0625 71.3824 32.6368 70.9106 32.5643Z" fill="white"/>
<path d="M64.2764 32.393C68.1963 32.3696 69.9401 32.4154 70.9106 32.5643C71.3824 32.6368 71.6805 33.0625 71.6805 33.5322V46.641C71.6805 47.2673 71.1578 47.7716 70.5211 47.7729C60.2631 47.7953 54.5076 50.1158 45.0225 56.3818C44.9175 56.4512 44.7734 56.379 44.7734 56.2545C44.7734 56.2125 44.7914 56.1718 44.822 56.1426C52.392 48.9074 57.7169 46.6822 67.949 45.3984C68.5296 45.3255 68.965 44.8374 68.9565 44.2619L68.8075 34.3769C68.8003 33.8949 68.4822 33.4665 68.0108 33.3348C66.9242 33.0312 66.2002 32.9514 64.9316 33.0006C64.5782 33.0143 64.2788 32.7409 64.2764 32.393ZM64.2764 32.393L64.857 33.0036" stroke="white"/>
<path d="M7.30823 40.0451L10.4632 37.7173V52.5673C10.4632 53.1934 10.9903 53.6978 11.6267 53.6967C28.2519 53.6692 35.3207 57.8063 42.3544 63.692C42.8057 64.0696 43.4761 64.0504 43.9067 63.6501C52.5194 55.6428 59.2397 53.0949 73.9108 53.6534C74.5627 53.6782 75.1124 53.1678 75.1124 52.5261V37.3621L78.6416 40.0448C78.9213 40.2575 79.0851 40.5856 79.0851 40.9334V57.84C79.0851 58.5495 78.419 59.0797 77.7104 58.9477C60.4521 55.7348 53.4459 58.6151 43.8778 66.7578C43.4567 67.1162 42.8296 67.1282 42.3928 66.7884C31.7325 58.4957 23.8807 56.7905 8.09811 58.0427C7.43023 58.0957 6.85156 57.5791 6.85156 56.92V40.9436C6.85156 40.59 7.02075 40.2571 7.30823 40.0451Z" fill="white" stroke="white"/>
<path d="M56.3445 27.5426C52.6605 37.6682 51.9382 39.5512 50.8186 41.5053C50.2046 42.5002 49.8435 43.3528 50.024 43.3528C50.7102 43.3528 51.9743 42.1803 52.8049 40.7592C53.8885 38.9117 60.9312 20.337 61.0035 19.0936L56.5972 18.909C52.9856 18.8379 52.3716 18.909 51.8659 19.4419C51.5409 19.7973 50.0601 23.4922 48.5432 27.6846C45.6539 35.7141 45.2205 36.6023 43.848 37.5261C43.1257 37.9525 42.8006 37.988 42.1866 37.6682C41.2837 37.2063 40.0196 35.2523 40.0196 34.364C40.0196 33.3692 39.1167 33.8666 39.0084 34.9325C38.8639 35.9983 40.0196 38.3788 41.1754 39.4446C41.6449 39.8354 42.4395 40.1552 43.1257 40.1552C45.1122 40.1552 45.8345 39.8778 48.5432 33.4826L53.2384 20.8987C53.4551 20.4791 54.3941 20.2591 56.4528 20.2591C58.9448 20.2591 59.1615 20.3302 58.8365 20.8987C58.6559 21.2184 57.5362 24.2384 56.3445 27.5426Z" fill="#B40000"/>
<path d="M31.8134 42.422C31.669 41.8891 31.5967 41.4627 31.669 41.4273C32.8609 40.9298 33.3303 40.1482 34.8473 35.8848C38.6395 25.3327 38.7118 25.1195 39.7952 25.7946C40.5537 26.2565 43.9487 33.753 43.6959 34.357C43.2625 35.565 42.3235 34.6768 40.951 31.7279C40.1565 29.9869 39.3979 28.8145 39.2173 28.9922C39.0368 29.1698 37.9172 32.1187 36.6532 35.5294C35.4252 38.9402 34.1972 42.1022 33.9082 42.5641C33.1859 43.6655 32.1024 43.5945 31.8134 42.422Z" fill="#B40000"/>
<path d="M24.5462 43.0461C24.2572 42.5843 32.8604 21.1059 33.9439 19.4716C35.7423 17.6431 36.284 18.1759 34.6663 19.8268C33.8356 21.5322 27.5151 38.5505 27.0817 40.2558L26.8288 41.2151C26.8288 41.2151 27.1539 41.4472 29.4219 41.4472C31.6898 41.4472 33.2577 41.2151 33.2577 41.2151L33.9077 39.4387C34.269 38.4794 34.7023 37.6623 34.919 37.6623C35.0996 37.6623 35.1719 37.5201 35.0274 37.3425C34.919 37.1649 34.9913 36.9161 35.208 36.774C35.7136 36.4543 35.6774 36.632 34.6301 39.8295C34.0883 41.5349 33.4383 42.7784 33.041 42.9915C34.117 43.9342 24.835 43.508 24.5462 43.0461Z" fill="#B40000"/>
<path d="M15.881 28.9429C15.8448 28.6231 16.2783 27.0954 16.8561 25.5677C20.4453 14.6697 29.4703 7.93066 41.849 6.80849C46.3636 6.4532 51.0227 7.44801 55.8262 9.86396C62.0743 12.9194 66.5168 17.7158 69.1894 24.2175C70.7785 28.0191 70.7062 29.1206 69.0811 25.8163C67.0224 21.5529 64.7471 18.4975 62.1105 16.4367C55.5733 11.3207 49.253 9.18891 41.849 9.57973C37.0815 9.86396 34.6256 10.5035 30.2916 12.5996C27.3662 13.9853 25.7802 15.3228 23.3933 17.6447C19.9581 20.9866 17.9397 23.9689 16.5311 27.7704C16.206 28.7652 15.881 29.2626 15.881 28.9429Z" fill="#EC7941"/>
<path d="M24.9102 43.1044C24.9102 42.7845 26.1381 39.3028 27.619 35.3591C29.0997 31.4509 30.9417 26.5124 31.7363 24.4163C32.4947 22.3201 33.5421 20.0462 33.9756 19.3712C35.059 17.8435 36.6843 16.9552 38.0929 17.1328L39.1763 17.2395L37.6594 18.0566C36.7204 18.554 35.7813 19.4067 35.2396 20.3304C34.1922 22.1069 27.4384 39.9068 27.4384 40.9016C27.4384 41.2924 28.4135 41.4475 28.7024 41.4475C28.9914 41.4475 28.5218 41.7542 28.5218 41.9319C28.5218 42.1451 28.0884 42.2871 27.5828 42.2871C26.9688 42.2871 27.7273 42.016 27.619 42.5134C27.3661 43.4017 25.8131 43.4017 24.9102 43.1044Z" fill="#B40000"/>
<path d="M125.703 50.5384H118.095L107.964 35.4937V50.5384H100.355V23.6183H107.964L118.095 38.8539V23.6183H125.703V50.5384ZM139.197 29.6133V34.0045H147.931V39.694H139.197V44.5434H149.095V50.5384H131.589V23.6183H149.095V29.6133H139.197ZM175.019 23.6183V29.5751H167.722V50.5384H160.114V29.5751H152.894V23.6183H175.019ZM186.995 23.6183V50.5384H179.387V23.6183H186.995ZM209.47 23.6183V50.5384H201.862V23.6183H209.47ZM232.668 46.1472H222.964L221.489 50.5384H213.492L223.468 23.6183H232.241L242.178 50.5384H234.143L232.668 46.1472ZM230.766 40.4195L227.816 31.7134L224.904 40.4195H230.766ZM256.535 50.8057C253.352 50.8057 250.739 50.0675 248.695 48.591C246.651 47.0891 245.55 44.9508 245.395 42.176H253.508C253.585 43.1179 253.871 43.8052 254.362 44.238C254.854 44.6707 255.487 44.8871 256.264 44.8871C256.962 44.8871 257.532 44.7217 257.972 44.3907C258.437 44.0344 258.67 43.5506 258.67 42.9397C258.67 42.1505 258.296 41.5395 257.545 41.1068C256.795 40.6741 255.579 40.1904 253.896 39.6558C252.11 39.0704 250.662 38.5103 249.548 37.9757C248.462 37.4156 247.505 36.6137 246.676 35.5701C245.875 34.5009 245.473 33.1136 245.473 31.4079C245.473 29.6769 245.913 28.2004 246.792 26.9785C247.673 25.7311 248.889 24.7893 250.441 24.1529C251.994 23.5164 253.754 23.1982 255.72 23.1982C258.903 23.1982 261.44 23.9364 263.328 25.413C265.244 26.864 266.266 28.9132 266.395 31.5607H258.127C258.102 30.7461 257.843 30.1352 257.351 29.7278C256.885 29.3205 256.277 29.1169 255.526 29.1169C254.958 29.1169 254.492 29.2823 254.129 29.6133C253.767 29.9442 253.585 30.4151 253.585 31.0261C253.585 31.5352 253.779 31.9807 254.168 32.3625C254.582 32.7189 255.087 33.0372 255.682 33.3172C256.277 33.5718 257.157 33.9026 258.321 34.31C260.055 34.8954 261.479 35.481 262.591 36.0665C263.73 36.6265 264.701 37.4284 265.502 38.4721C266.331 39.4904 266.744 40.7887 266.744 42.3669C266.744 43.9707 266.331 45.409 265.502 46.6818C264.701 47.9546 263.522 48.9602 261.97 49.6984C260.443 50.4366 258.632 50.8057 256.535 50.8057Z" fill="white"/>
</svg>
