<?xml version="1.0" standalone="no"?>
<!DOCTYPE svg PUBLIC "-//W3C//DTD SVG 20010904//EN"
 "http://www.w3.org/TR/2001/REC-SVG-20010904/DTD/svg10.dtd">
<svg version="1.0" xmlns="http://www.w3.org/2000/svg"
 width="2718.000000pt" height="1740.000000pt" viewBox="0 0 2718.000000 1740.000000"
 preserveAspectRatio="xMidYMid meet">
<metadata>
Created by potrace 1.16, written by Peter Selinger 2001-2019
</metadata>
<g transform="translate(0.000000,1740.000000) scale(0.100000,-0.100000)"
fill="#000000" stroke="none">
<path d="M10623 11590 c-140 -37 -214 -70 -508 -233 -524 -290 -904 -436
-1816 -696 -344 -98 -488 -145 -541 -176 -15 -9 -19 -37 -27 -215 -4 -113 -6
-208 -2 -212 14 -15 166 -51 471 -112 555 -111 846 -209 1411 -475 827 -390
1379 -777 1979 -1387 536 -544 950 -1123 1280 -1789 159 -320 239 -511 340
-815 123 -367 207 -733 246 -1060 9 -80 18 -151 20 -157 4 -16 514 -19 514 -3
0 33 44 338 65 455 254 1380 1090 2781 2256 3781 387 332 798 601 1319 864
659 332 1066 478 1630 585 185 35 468 100 478 109 2 3 1 99 -3 214 l-8 210
-56 25 c-83 36 -207 75 -586 182 -780 221 -1249 403 -1739 674 -361 201 -500
251 -695 251 -113 0 -196 -14 -301 -50 -364 -126 -1013 -633 -1428 -1117 -279
-326 -467 -615 -668 -1028 -128 -263 -196 -434 -296 -745 -91 -283 -160 -480
-198 -565 l-27 -60 -22 50 c-42 94 -109 280 -176 495 -72 227 -129 387 -189
533 -369 889 -909 1566 -1716 2149 -248 179 -457 284 -643 324 -97 20 -275 17
-364 -6z"/>
<path d="M2706 3548 c-26 -25 -926 -1774 -926 -1801 0 -16 25 -17 298 -17
l297 1 329 682 c181 375 334 688 339 695 6 7 24 12 41 10 30 -3 36 -14 246
-434 118 -237 225 -448 238 -468 13 -20 20 -36 15 -36 -4 0 -207 0 -450 0
l-443 1 0 -24 c0 -12 33 -113 74 -222 l74 -200 776 -3 c427 -1 776 1 776 6 0
4 -206 413 -457 907 -356 700 -464 902 -483 912 -19 9 -114 13 -372 13 -346 0
-347 0 -372 -22z"/>
<path d="M4540 3550 c-20 -20 -20 -33 -20 -920 l0 -900 255 0 255 0 0 210 c0
116 4 210 8 210 4 0 43 -94 87 -210 l79 -210 437 0 c335 0 454 3 511 14 266
51 419 190 491 443 20 74 21 98 21 458 0 362 -1 384 -22 460 -76 272 -253 417
-557 454 -58 7 -348 11 -807 11 -705 0 -718 0 -738 -20z m1490 -472 c19 -9 47
-29 61 -45 51 -56 54 -76 54 -378 0 -279 0 -280 -25 -330 -29 -58 -71 -89
-141 -104 -31 -7 -217 -11 -499 -11 l-450 0 0 426 c0 280 4 432 11 445 10 19
20 20 482 17 415 -3 476 -5 507 -20z"/>
<path d="M6860 2650 l0 -920 260 0 260 0 2 552 3 552 75 -200 76 -199 517 -3
517 -2 0 -350 0 -350 260 0 260 0 0 920 0 920 -260 0 -260 0 0 -340 0 -340
-595 0 -595 0 0 340 0 340 -260 0 -260 0 0 -920z"/>
<path d="M9210 3551 c0 -10 196 -263 435 -562 l435 -544 0 -357 0 -358 260 0
260 0 0 355 0 355 436 547 c241 301 439 555 442 565 4 17 -12 18 -291 18
l-295 0 -261 -340 c-207 -268 -267 -340 -284 -340 -18 0 -80 73 -287 339
l-265 340 -292 0 c-280 1 -293 0 -293 -18z"/>
<path d="M11896 3548 c-23 -21 -936 -1785 -936 -1809 0 -6 118 -8 302 -7 l302
3 322 665 c177 366 329 678 338 693 13 23 21 28 48 25 33 -3 34 -5 265 -468
128 -256 232 -467 232 -470 1 -3 -199 -4 -444 -2 l-445 3 0 -28 c0 -15 33
-116 74 -223 l73 -195 771 -3 c710 -2 772 -1 772 14 0 9 -154 319 -341 688
-537 1056 -566 1112 -595 1125 -17 7 -132 11 -369 11 -342 0 -344 0 -369 -22z"/>
<path d="M13062 3552 c3 -10 202 -264 442 -564 l436 -545 0 -357 0 -356 255 0
255 0 0 350 0 350 437 548 c240 301 439 557 441 570 l4 22 -293 -2 -293 -3
-258 -335 c-222 -289 -261 -335 -283 -335 -23 0 -63 47 -289 335 l-263 335
-298 3 c-285 2 -297 2 -293 -16z"/>
<path d="M15767 3563 c-9 -2 -28 -23 -41 -46 -52 -92 -906 -1765 -906 -1776 0
-8 77 -11 301 -9 l300 3 329 679 c181 373 335 684 341 692 6 8 25 14 41 14 29
0 34 -9 232 -412 112 -227 217 -437 234 -466 18 -29 32 -56 32 -60 0 -4 -200
-6 -445 -4 l-445 3 0 -28 c0 -15 32 -117 72 -225 l73 -198 773 0 c653 0 772 2
772 14 0 23 -891 1769 -917 1796 l-23 25 -353 2 c-193 0 -360 -1 -370 -4z"/>
<path d="M17585 3546 l-25 -25 0 -896 0 -895 235 0 235 0 0 694 c0 761 -3 721
60 714 31 -3 39 -17 396 -683 200 -374 376 -690 390 -702 l25 -23 419 0 c367
0 421 2 434 16 14 14 16 111 16 920 l0 904 -235 0 -235 0 -2 -707 -3 -708 -36
-3 c-24 -2 -40 3 -51 15 -8 10 -169 317 -357 683 -189 366 -354 676 -367 690
l-24 25 -425 3 -425 3 -25 -25z"/>
<path d="M20836 3548 c-23 -21 -936 -1784 -936 -1808 0 -7 109 -9 302 -8 l302
3 322 665 c177 366 329 677 337 693 12 20 24 27 45 27 16 0 34 -6 39 -12 6 -7
84 -164 174 -348 89 -184 191 -388 226 -452 35 -65 63 -121 63 -125 0 -5 -200
-7 -445 -5 l-445 3 0 -28 c0 -15 33 -116 73 -223 l73 -195 772 -3 c706 -2 772
-1 772 14 0 9 -147 305 -326 658 -556 1092 -582 1142 -610 1155 -17 7 -132 11
-369 11 -342 0 -344 0 -369 -22z"/>
<path d="M22669 3551 l-24 -19 -3 -901 -2 -901 245 0 245 0 2 703 3 702 36 3
c21 2 40 -2 47 -11 6 -7 124 -319 261 -692 150 -408 257 -684 267 -692 14 -10
99 -13 369 -13 323 0 353 1 367 18 9 9 127 318 263 687 136 368 251 678 257
688 7 14 19 17 46 15 l37 -3 3 -702 2 -703 245 0 245 0 0 898 c0 760 -2 901
-14 918 -14 18 -30 19 -465 19 -448 0 -451 0 -472 -22 -15 -14 -95 -237 -248
-690 l-226 -668 -36 -3 -37 -3 -45 133 c-25 73 -124 367 -220 654 -96 286
-182 534 -191 551 -9 18 -29 35 -47 42 -22 7 -172 11 -459 11 -406 0 -429 -1
-451 -19z"/>
</g>
</svg>
