<svg width="500" height="500" viewBox="0 0 500 500" fill="none" xmlns="http://www.w3.org/2000/svg">
<g clip-path="url(#clip0_1229_845)">
<path d="M359.636 366.142C429.783 295.994 429.783 182.263 359.636 112.116C289.489 41.9688 175.758 41.9688 105.61 112.116C35.4632 182.263 35.4632 295.994 105.61 366.142C175.758 436.289 289.489 436.289 359.636 366.142Z" fill="#00C1A5"/>
<path d="M322.037 252.689C322.037 252.689 323.7 251.249 322.037 245.09C320.373 238.93 319.335 234.036 323.748 220.388C328.161 206.74 327.642 197.806 331.017 197.99C334.392 198.174 337.767 202.659 336.468 210.801C335.17 218.942 336.468 222.874 338.805 220.389C341.141 217.904 353.862 196.876 359.053 189.089C364.245 181.301 368.399 181.695 369.437 184.484C370.476 187.272 355.939 210.376 355.939 212.194C355.939 214.011 358.649 213.228 366.063 202.329C376.171 187.469 379.845 183.845 382.441 185.335C385.037 186.825 385.793 190.116 378.523 201.155C371.255 212.194 368.139 216.925 368.919 217.675C369.697 218.424 376.181 210.566 384.441 201.333C392.901 191.877 396.642 200.004 390.152 208.312C383.662 216.619 373.851 227.511 372.812 229.848C371.774 232.184 375.408 230.368 380.34 227.771C385.273 225.175 395.222 218.99 397.734 222.319C399.217 224.285 394.534 229.461 384.928 235.43C375.324 241.399 361.731 249.645 357.547 252.789C350.707 257.929 348.759 256.772 345.84 265.137L330.757 275.797L317.258 266.97L322.037 252.689Z" fill="#FFB89E"/>
<path opacity="0.5" d="M343.001 225.939C343.001 225.939 345.273 243 337.668 250C337.668 250 344.001 248.5 345.501 239.667C347.001 230.833 343.001 225.939 343.001 225.939Z" fill="#F4825C"/>
<path d="M278.001 294.11C262.751 302.73 142.831 288.099 122.831 282.5C102.831 276.901 101.751 253.75 108.811 244C115.881 234.25 117.251 227.25 111.001 218.89C105.131 211.04 102.561 195.96 113.041 183.35C113.051 183.34 113.051 183.33 113.051 183.33C113.711 182.53 114.431 181.74 115.201 180.96C128.161 167.92 131.501 163.5 133.501 148.44C135.501 133.38 141.251 115 158.401 104.61C175.561 94.2198 193.041 98.9498 193.041 98.9498C193.041 98.9498 239.711 193.73 239.711 199.28C239.701 204.83 237.761 214.02 251.581 218C265.401 221.98 266.001 227.75 266.251 236.5C266.501 245.25 274.501 241 286.501 250C290.261 252.82 292.331 257.35 292.921 262.52C294.231 273.84 288.471 288.2 278.001 294.11Z" fill="#FF543A"/>
<path d="M278.001 294.11C262.751 302.73 142.831 288.099 122.831 282.5C102.831 276.901 101.751 253.75 108.811 244C115.881 234.25 117.251 227.25 111.001 218.89C105.131 211.04 102.561 195.96 113.041 183.35C112.831 184.04 105.901 206.8 121.001 216.66C136.331 226.67 153.671 213.17 154.001 206.09C154.001 206.09 132.671 204.32 137.831 181.49L226.451 209.66C226.451 209.66 221.451 224 229.561 232C237.671 240 254.721 237.26 257.361 255.46C260.001 273.67 285.84 281.03 292.921 262.519C294.231 273.84 288.471 288.2 278.001 294.11Z" fill="#E44232"/>
<path d="M261.003 201.03C260.7 201.03 260.4 200.893 260.204 200.632C259.871 200.191 259.959 199.564 260.399 199.232C260.493 199.161 269.71 192.083 266.342 184.732C262.877 177.169 249.798 175.761 249.666 175.748C249.117 175.692 248.716 175.202 248.771 174.653C248.826 174.104 249.317 173.707 249.865 173.758C250.45 173.817 264.216 175.292 268.159 183.899C272.198 192.714 262.036 200.502 261.601 200.829C261.424 200.964 261.212 201.03 261.003 201.03Z" fill="#22848C"/>
<path d="M216.5 335.25C185.75 331.5 149 253.5 149 253.5C149 253.5 157.75 251.75 166.17 240C170.95 233.33 172.19 220.23 172.37 210.13C172.51 202.44 172.03 196.49 172.03 196.49L213 223.77C213 223.77 212.44 230.84 212.44 236.83C212.44 239.84 212.58 242.58 213 244C214.25 248.25 221.5 245.5 222.75 245.75C224 246 235 276 240.75 293.5C246.5 311 247.25 339 216.5 335.25Z" fill="#FFB89E"/>
<path opacity="0.5" d="M158.502 248.3C158.502 248.3 154.699 257.986 171.517 266.66C188.335 275.333 203.852 268.995 203.852 268.995C203.852 268.995 197.476 282.534 201.572 296.768C201.572 296.768 202.885 289.993 205.443 285.663C208.002 281.333 215.074 272.216 216.43 266.66C218.123 267.809 221.883 271.018 224.775 271.676L223.263 253.361C223.263 253.361 216.289 262.543 198.978 261.105C181.667 259.667 163.166 242.681 163.166 242.681L158.502 248.3Z" fill="#F4825C"/>
<path opacity="0.5" d="M213.001 223.77C213.001 223.77 212.441 230.84 212.441 236.83C201.771 236.54 191.211 231.23 182.401 222.61C178.711 218.99 175.331 214.79 172.371 210.13C172.511 202.44 172.031 196.49 172.031 196.49L213.001 223.77Z" fill="#F7815E"/>
<path d="M347.252 262.2C347.252 262.2 328.002 337.32 324.002 350.28C320.002 363.25 314.502 371 294.502 354.25C274.502 337.5 257.362 321.89 257.362 321.89L225.332 245.681C225.332 245.681 226.972 244.801 229.442 244.341C233.262 243.641 239.082 243.921 243.872 250.001C251.752 260.001 298.252 312.001 298.252 312.001L322.002 248.73C322.002 248.73 323.962 250.78 327.642 253.36C331.952 256.39 338.622 260.15 347.252 262.2Z" fill="#00668C"/>
<path d="M347.252 262.065C347.252 262.065 328.002 337.185 324.002 350.145C320.002 363.115 314.502 370.865 294.502 354.115C274.502 337.365 257.362 321.756 257.362 321.756L225.332 245.546C225.332 245.546 226.972 244.666 229.442 244.206L231.742 245.926C231.742 245.926 235.936 253.388 253.337 275.658C270.736 297.938 305.552 345.426 309.942 342.015C314.332 338.595 327.511 293.695 330.442 280.415C333.362 267.135 327.641 253.359 327.641 253.359C331.952 256.39 338.622 260.016 347.252 262.065Z" fill="#006084"/>
<path d="M246.5 198.97C242.5 211.52 234.51 219.82 220.74 222.95C207.37 225.99 193.49 220.39 182.4 209.53C175.75 203.01 170.1 194.6 166.17 185.03C163.73 179.08 161.95 172.68 161 166C156 130.67 169.67 112.33 197.33 106C219.19 101 244 108 248.5 151.42C248.91 155.4 249.23 159.24 249.45 162.95C250.29 177.18 249.57 189.33 246.5 198.97Z" fill="#FFB89E"/>
<path d="M215.25 151.5C219.75 149.75 232.75 179 232.75 179C232.75 179 216.75 185 216.5 184.25C216.25 183.5 215.25 151.5 215.25 151.5Z" fill="#FC9E7C"/>
<path d="M216.5 184.25C216.5 184.25 223.571 179.983 227.75 178.625C232.75 177 233.625 179.25 232.75 182.625C232.75 182.625 224.875 186.375 216.5 184.25Z" fill="#F18158"/>
<path d="M233.05 192.5C233.05 192.5 232.4 199.88 226.45 203.79C224.82 204.86 222.78 205.68 220.25 206C215.33 206.63 211.52 203.71 209.12 201.03V201.02C208.81 200.68 208.53 200.35 208.28 200.03C206.96 198.36 206.25 197 206.25 197C206.25 197 210.33 194.74 219.65 193.28C222.83 192.78 226.03 192.58 228.5 192.51C231.21 192.43 233.05 192.5 233.05 192.5Z" fill="#A0103E"/>
<path d="M228.5 196.75C227.88 197 214.94 197.3 208.28 200.03C206.96 198.36 206.25 197 206.25 197C206.25 197 210.33 194.74 219.65 193.28C222.83 192.78 227.447 192.542 229.917 192.472C229.917 192.472 229.13 196.5 228.5 196.75Z" fill="white"/>
<path d="M226.451 203.789C224.821 204.859 222.781 205.679 220.251 205.999C215.331 206.629 211.521 203.709 209.121 201.029V201.019C223.241 198.539 226.181 203.959 226.451 203.789Z" fill="#FF5D65"/>
<path opacity="0.5" d="M197.894 174.261C191.378 175.319 185.237 170.894 184.18 164.378L182.398 153.401C181.34 146.885 185.766 140.746 192.282 139.688C198.798 138.63 204.937 143.055 205.995 149.571L207.776 160.548C208.833 167.064 204.409 173.204 197.894 174.261Z" fill="url(#paint0_linear_1229_845)"/>
<path opacity="0.5" d="M236.587 169.278C229.988 169.459 224.492 164.257 224.311 157.658L224.005 146.542C223.824 139.943 229.026 134.447 235.625 134.266C242.224 134.084 247.72 139.287 247.901 145.885L248.207 157.001C248.388 163.6 243.185 169.096 236.587 169.278Z" fill="url(#paint1_linear_1229_845)"/>
<path opacity="0.15" d="M203.852 190.439C203.852 201.059 195.242 209.659 184.622 209.659C183.872 209.659 183.132 209.619 182.402 209.529C175.752 203.009 170.102 194.599 166.172 185.029C168.512 177.039 175.892 171.209 184.622 171.209C195.242 171.209 203.852 179.819 203.852 190.439Z" fill="#FF5D65"/>
<path opacity="0.15" d="M246.501 198.97C239.891 195.93 235.301 189.24 235.301 181.49C235.301 172.64 241.301 165.18 249.451 162.95C250.291 177.18 249.571 189.33 246.501 198.97Z" fill="#FF5D65"/>
<path d="M195.75 169.286C200.099 169.286 203.625 165.76 203.625 161.411C203.625 157.061 200.099 153.536 195.75 153.536C191.401 153.536 187.875 157.061 187.875 161.411C187.875 165.76 191.401 169.286 195.75 169.286Z" fill="white"/>
<path d="M187.906 160.365C188.511 156.058 192.493 153.057 196.801 153.662C199.492 154.04 201.674 155.738 202.784 158.009" stroke="#820E06" stroke-width="2" stroke-miterlimit="10" stroke-linecap="round"/>
<path d="M199.967 164.194C199.967 166.894 197.777 169.084 195.077 169.084C192.507 169.084 190.397 167.094 190.207 164.574L195.077 163.544L191.047 161.424C191.927 160.134 193.407 159.294 195.077 159.294C197.777 159.294 199.967 161.484 199.967 164.194Z" fill="#003756"/>
<path d="M237.457 164.192C241.806 164.192 245.332 160.666 245.332 156.317C245.332 151.968 241.806 148.442 237.457 148.442C233.108 148.442 229.582 151.968 229.582 156.317C229.582 160.666 233.108 164.192 237.457 164.192Z" fill="white"/>
<path d="M229.559 155.162C230.164 150.855 234.147 147.854 238.454 148.459C241.146 148.837 243.328 150.535 244.437 152.806" stroke="#820E06" stroke-width="2" stroke-miterlimit="10" stroke-linecap="round"/>
<path d="M241.498 159.3C241.498 162 239.308 164.19 236.608 164.19C234.038 164.19 231.928 162.2 231.738 159.68L236.608 158.65L232.578 156.53C233.458 155.24 234.938 154.4 236.608 154.4C239.308 154.4 241.498 156.59 241.498 159.3Z" fill="#003756"/>
<path d="M161 166C161 166 170.25 164.072 172.25 153.536C174.25 143 173 128.75 179.75 122.75C186.5 116.75 202.25 124.25 210.5 122.75C218.75 121.25 229.666 109.241 237.458 118.371C241.322 123.663 244.195 129.959 246.035 137.305C246.035 137.305 257.249 101.084 216.499 99.667C216.499 99.667 180.749 92.751 162.249 122.001C162.249 122.001 156.216 135.635 155.732 148.443C155.249 161.251 159.187 164.575 159.187 164.575L161 166Z" fill="#FF543A"/>
<path d="M261 345.33C254.91 358.67 254.67 398.33 254.67 398.33C254.67 398.33 165.34 394.67 166.17 393.67C166.51 393.27 163.77 370.3 160.39 343.07C155.39 302.92 149 253.5 149 253.5L152.83 252.02C152.83 252.02 174.17 284.92 196.43 306C220.21 328.51 237.15 336.67 231.74 301.33C226.67 268.21 214.64 246.8 213.15 244.26C213.65 244.99 215.7 246.92 222.75 245.75C231.33 244.33 231.74 247.67 236.62 268.65C239.44 280.75 260.49 319.9 261.82 338.57C262.01 341.32 261.78 343.62 261 345.33Z" fill="#33C6C6"/>
<path d="M261.001 345.33C254.911 358.67 254.671 398.33 254.671 398.33C254.671 398.33 165.341 394.67 166.171 393.67C166.511 393.27 163.771 370.3 160.391 343.07C196.435 359.333 251.581 348.667 261.821 338.57C262.011 341.32 261.781 343.62 261.001 345.33Z" fill="#00A7AE"/>
<path d="M215.25 396.61L166.17 393.669C166.17 393.669 106.33 276.999 116.33 268.649C118.15 267.129 120.38 265.659 122.83 264.279C133.82 258.05 149 253.5 149 253.5C171.32 285.78 192.62 313.84 203.5 334.73C207.74 342.849 210.4 349.889 210.94 355.669C213.12 378.88 215.25 396.61 215.25 396.61Z" fill="#00597D"/>
<path d="M275.001 344.33C270.671 352.67 261.451 362.36 261.451 362.36L262.331 398.13H249.771C249.771 398.13 250.001 385 251.581 366.33C252.81 351.78 254.611 337.21 253.401 326.61C253.06 323.62 252.481 320.94 251.581 318.669C247.491 308.329 220.191 246.059 220.191 246.059C220.191 246.059 222.541 245.769 225.331 245.679C227.511 245.609 229.951 245.659 231.741 246.059C238.311 247.529 239.531 261.518 241.501 274.499C242.591 281.649 243.441 284.309 246.821 288.679C249.571 292.24 254.011 296.919 261.612 306.089C278.561 326.51 279.331 336 275.001 344.33Z" fill="#00597D"/>
<path d="M203.502 334.73C195.322 326.179 169.332 323 166.172 321.169C163.012 319.329 166.672 300.329 162.332 297.329C158.002 294.329 122.832 264.279 122.832 264.279C133.822 258.05 149.002 253.5 149.002 253.5C171.322 285.78 192.622 313.84 203.502 334.73Z" fill="#00668C"/>
<path d="M257.358 305.33C257.297 309.43 253.208 322.68 253.398 326.61C253.057 323.62 252.478 320.94 251.578 318.669C247.488 308.329 219.648 245.151 219.648 245.151C219.648 245.151 222.538 244.806 225.328 244.715C233.778 247.505 239.028 259.079 241.498 274.499C242.348 279.809 244.428 284.559 246.818 288.679C251.517 296.81 257.408 302.53 257.358 305.33Z" fill="#00668C"/>
<path d="M211.857 262.021C211.857 262.021 197.752 275.5 206.252 300C206.252 300 205.252 292.75 210.752 283.5C216.252 274.25 219.822 268.209 217.787 261.104L211.857 262.021Z" fill="#00AE9D"/>
<path d="M218.084 263.75C218.084 263.75 224.351 269.042 233.05 268.646C241.75 268.25 250 274.5 250 274.5C250 274.5 241.05 253.828 219.65 255.914L215.25 259L218.084 263.75Z" fill="#00AE9D"/>
<path d="M213 261.25C213 261.25 197.75 272.5 181.5 267.25C180.97 267.08 180.45 266.9 179.94 266.72C179.91 266.71 179.86 266.691 179.81 266.66C164.83 261.32 159.22 252.11 158.5 248.3C157.75 244.35 161.5 237.5 163.25 230.5C165 223.5 167 218 171.92 219.01C171.59 224.03 170 231 170 231C169.24 234.36 173.25 245.75 186.75 252.5C197.14 257.7 204.79 256.67 207.76 255.92C207.77 255.92 207.78 255.91 207.79 255.91C208.66 255.69 209.12 255.5 209.12 255.5L213 261.25Z" fill="#00AE9D"/>
<path d="M220.192 246.02V246.06C219.752 249.83 218.792 253.36 218.792 253.36L213.002 248.73C212.522 243.14 212.332 237.56 212.542 232C212.542 232 217.552 234.5 219.652 238.5C220.552 240.21 220.522 243.19 220.192 246.02Z" fill="#00AE9D"/>
<path d="M207.792 255.913C207.792 255.913 206.19 254.247 210.252 249.999C214.314 245.751 219.652 253.31 219.652 255.913C219.652 259.499 218.462 263.039 211.857 262.019C211.857 262.019 210.583 258.077 207.792 255.913Z" fill="#00C1A6"/>
<path d="M179.81 266.66C164.83 261.32 159.22 252.11 158.5 248.3C157.75 244.35 161.5 237.5 163.25 230.5C165 223.5 167 218 171.92 219.01C171.59 224.03 170 231 170 231C169.24 234.36 173.25 245.75 186.75 252.5C197.14 257.7 204.79 256.67 207.76 255.92C180.97 267.56 173 246.75 167.83 250C162.81 253.16 177.83 265.57 179.81 266.66Z" fill="#009B90"/>
<path d="M220.192 246.02C220.182 245.48 220.032 240.31 216.502 239.75C212.782 239.16 212.832 246.48 213.002 248.73C212.522 243.14 212.332 237.56 212.542 232C212.542 232 217.552 234.5 219.652 238.5C220.552 240.21 220.522 243.19 220.192 246.02Z" fill="#009B90"/>
<path d="M213.564 262.198C213.564 262.198 206.073 275.752 209.12 275.793C212.166 275.833 213.564 262.198 213.564 262.198Z" fill="#009B90"/>
<path d="M219.047 259.434C219.047 259.434 232.001 267.6 234.667 265.133C237.334 262.667 219.047 259.434 219.047 259.434Z" fill="#009B90"/>
<path d="M201.559 357.082L170.785 361.447L168.461 343.485L199.235 339.12L201.559 357.082Z" fill="#F0FFFD"/>
<path d="M196.988 346.486L172.187 350.284L171.559 345.781L196.434 341.983L196.988 346.486Z" fill="#00668C"/>
<path d="M366.29 414.17H366.28C365.139 415.25 362.51 415.97 360.33 416.33C360.34 416.33 360.34 416.33 360.35 416.34C360.55 416.481 362.191 417.57 362.17 418.62C362.15 419.4 361.231 420.16 358.17 420.5C350.88 421.31 327.231 417.4 325.89 417.18L325.83 417.17C325.83 417.17 325.85 417.18 325.89 417.191C327.02 417.6 345.29 424.211 349 425.331C350.91 425.921 352.83 427.041 353.19 428.14C353.54 429.25 352.339 430.331 348 430.831C338.61 431.921 336 429.171 324.5 426.331C313 423.501 313.17 422.331 306 424.171C301.69 425.271 298.53 427.091 294.52 427.251C294.51 427.251 294.51 427.251 294.5 427.251C291.84 427.351 288.81 426.721 284.83 424.671C283.67 424.001 258.5 425.831 258.5 425.831L267.96 398.131C267.96 398.131 288.67 396.831 294.83 395.331C301 393.831 324.5 390.001 329.83 392.831C335.17 395.671 350.17 406.501 350.17 406.501C350.17 406.501 366.5 411.001 366.83 412.831C366.92 413.33 366.71 413.77 366.29 414.17Z" fill="#FFB89E"/>
<path opacity="0.5" d="M362.172 418.62C362.152 419.4 361.233 420.16 358.172 420.5C350.882 421.31 327.233 417.4 325.892 417.18L325.832 417.17L317.502 414C317.502 414 315.962 411.12 321.672 412.62C327.382 414.12 336.382 416.75 345.252 417.75C354.122 418.75 359.722 419.86 362.172 418.62Z" fill="#F7815E"/>
<path opacity="0.5" d="M366.282 414.17C365.141 415.25 362.512 415.97 360.332 416.33C360.332 416.33 331.002 408.62 326.882 407.38C322.752 406.12 317.502 406 319.382 404.5C321.252 403 327.002 403.88 336.252 406.88C345.502 409.88 360.182 414.7 366.282 414.17Z" fill="#F7815E"/>
<path opacity="0.5" d="M350.17 406.5C350.17 406.5 339.5 403.625 333.375 402C327.25 400.375 324.125 399.5 320.875 399.25C317.625 399 322 396.91 327.75 398.33C333.5 399.75 346.359 403.782 346.359 403.782L350.17 406.5Z" fill="#F7815E"/>
<path opacity="0.5" d="M348 430.83C338.61 431.92 336 429.17 324.5 426.33C313 423.5 313.17 422.33 306 424.17C301.69 425.27 298.53 427.09 294.52 427.25C301.63 425.49 305.13 419.62 313.75 420.61C322.38 421.599 334.25 427.5 342.63 428.88C351.02 430.25 353.191 428.14 353.191 428.14C353.54 429.25 352.34 430.33 348 430.83Z" fill="#F7815E"/>
<path d="M268.092 396.61C267.622 402.53 266.932 407.419 266.153 411.45C263.233 426.49 258.932 429.67 258.932 429.67C258.932 429.67 235.332 430.67 196.433 431.67C157.533 432.67 138.333 437.67 136.003 428C133.673 418.33 118.003 353.67 112.673 321.89C107.333 290.12 106.023 268.46 118.763 266.81C122.193 266.37 125.833 267.55 129.413 270.191C138.133 276.59 146.523 291.6 150.673 312.67C156.513 342.39 163.373 388.15 164.043 389.481C164.712 390.81 266.332 396.67 268.092 396.61Z" fill="#00668C"/>
<path d="M266.153 411.45C263.233 426.49 258.932 429.67 258.932 429.67C258.932 429.67 235.332 430.67 196.433 431.67C157.533 432.67 138.333 437.67 136.003 428C133.673 418.33 118.003 353.67 112.673 321.89C107.333 290.12 106.023 268.46 118.763 266.81C122.193 266.37 125.833 267.55 129.413 270.191C128.373 269.47 119.103 268.191 124.483 303.951C129.863 339.711 144.013 402.661 145.973 411.451C147.923 420.231 158.543 419.741 192.523 419.741C226.493 419.74 256.523 420.23 266.153 411.45Z" fill="#006084"/>
<path d="M139.953 179.972C139.953 171.256 147.019 164.19 155.735 164.19C164.451 164.19 171.517 171.256 171.517 179.972C171.517 188.688 164.451 195.754 155.735 195.754C147.019 195.754 139.953 188.688 139.953 179.972Z" fill="#026674"/>
<path d="M151.068 164.892C151.068 164.892 148.17 135.5 157.67 120.666C167.17 105.833 192.67 93.3328 216.504 99.6658C216.292 99.7198 206.055 98.1798 194.837 101.5C181.61 105.414 168.588 111.949 161.837 129.761C156.504 143.833 159.192 164.574 159.192 164.574L151.068 164.892Z" fill="#026674"/>
<path d="M152.836 196.494C161.12 196.494 167.836 189.778 167.836 181.494C167.836 173.209 161.12 166.494 152.836 166.494C144.552 166.494 137.836 173.209 137.836 181.494C137.836 189.778 144.552 196.494 152.836 196.494Z" fill="#22848C"/>
<path d="M152.835 194.887C145.45 194.887 139.441 188.879 139.441 181.494C139.441 178.342 140.558 175.28 142.586 172.871C142.941 172.448 143.573 172.395 143.995 172.75C144.417 173.106 144.472 173.737 144.116 174.159C142.391 176.208 141.441 178.812 141.441 181.494C141.441 187.776 146.552 192.887 152.835 192.887C153.387 192.887 153.835 193.335 153.835 193.887C153.835 194.439 153.388 194.887 152.835 194.887Z" fill="#53B29E"/>
<path d="M146.639 172.185C147.178 172.185 147.614 171.748 147.614 171.21C147.614 170.671 147.178 170.235 146.639 170.235C146.101 170.235 145.664 170.671 145.664 171.21C145.664 171.748 146.101 172.185 146.639 172.185Z" fill="#53B29E"/>
<path d="M155.695 192.912C155.695 192.373 156.131 191.937 156.67 191.937C157.208 191.937 157.645 192.374 157.645 192.912C157.645 193.45 157.209 193.887 156.67 193.887C156.131 193.887 155.695 193.45 155.695 192.912Z" fill="#53B29E"/>
<path d="M153.834 162.411C153.325 162.411 152.889 162.024 152.839 161.507C152.765 160.737 151.081 142.502 155.381 128.866C158.352 119.446 164.963 113.363 168.64 110.575C169.079 110.239 169.707 110.327 170.041 110.768C170.374 111.208 170.288 111.835 169.848 112.169C166.361 114.813 160.093 120.575 157.288 129.467C153.112 142.71 154.812 161.131 154.83 161.316C154.882 161.866 154.479 162.354 153.93 162.407C153.898 162.41 153.866 162.411 153.834 162.411Z" fill="#227D84"/>
<path d="M171.316 109.412C171.316 108.848 171.773 108.391 172.337 108.391C172.901 108.391 173.358 108.848 173.358 109.412C173.358 109.975 172.901 110.433 172.337 110.433C171.773 110.433 171.316 109.976 171.316 109.412Z" fill="#227D84"/>
<path d="M254.143 197.919C257.942 195.615 262.463 196.124 264.242 199.056C266.019 201.988 264.381 206.232 260.582 208.536C256.783 210.84 252.262 210.331 250.484 207.399C248.705 204.468 250.344 200.224 254.143 197.919Z" fill="#026674"/>
<path d="M255.721 209.121C252.558 209.121 250.918 206.764 250.84 206.648C250.53 206.191 250.65 205.569 251.107 205.259C251.558 204.949 252.181 205.067 252.492 205.521C252.563 205.621 254.031 207.641 256.857 206.984C257.887 206.744 258.866 206.274 259.764 205.585C260.204 205.25 260.83 205.333 261.166 205.771C261.502 206.21 261.419 206.837 260.981 207.173C259.854 208.036 258.62 208.628 257.31 208.932C256.743 209.064 256.214 209.121 255.721 209.121Z" fill="#227D84"/>
<path d="M261.625 204.046C261.625 203.495 262.071 203.049 262.622 203.049C263.173 203.049 263.619 203.495 263.619 204.046C263.619 204.597 263.173 205.043 262.622 205.043C262.071 205.043 261.625 204.597 261.625 204.046Z" fill="#227D84"/>
<path d="M191.926 136.026C196.718 133.978 202.098 135.302 203.374 138.488C204.649 141.674 200.787 142.271 198.291 142.792C193.185 143.857 186.674 146.879 184.061 147.962C180.336 149.506 179.195 147.143 181.906 143.489C183.827 140.9 187.86 137.763 191.926 136.026Z" fill="#E44232"/>
<path d="M239.206 132.064C234.262 130.416 229.009 132.177 227.999 135.457C226.989 138.737 230.887 139.015 233.418 139.329C238.595 139.972 245.332 142.449 248.024 143.314C251.864 144.548 252.806 142.099 249.805 138.68C247.677 136.257 243.399 133.462 239.206 132.064Z" fill="#E44232"/>
<path d="M359.017 81.605H280.516C270.316 81.605 262.047 89.874 262.047 100.074V144.874C262.047 155.075 270.316 163.343 280.516 163.343H299.441C299.571 167.844 298.338 174.705 290.997 179.835C289.348 180.988 290.386 183.584 292.383 183.331C302.085 182.101 316.222 177.798 319.213 163.344H359.018C369.217 163.344 377.487 155.075 377.487 144.875V100.075C377.485 89.874 369.216 81.605 359.017 81.605Z" fill="white"/>
<path d="M299.326 106.383H297.148C297.108 106.101 297.027 105.851 296.904 105.632C296.782 105.41 296.624 105.221 296.432 105.065C296.24 104.91 296.018 104.79 295.766 104.707C295.517 104.625 295.247 104.583 294.956 104.583C294.429 104.583 293.97 104.714 293.578 104.976C293.187 105.234 292.884 105.612 292.669 106.109C292.453 106.603 292.346 107.203 292.346 107.909C292.346 108.635 292.453 109.245 292.669 109.739C292.887 110.232 293.192 110.605 293.583 110.857C293.975 111.109 294.427 111.235 294.941 111.235C295.229 111.235 295.496 111.197 295.741 111.121C295.99 111.045 296.21 110.933 296.402 110.788C296.595 110.638 296.754 110.458 296.88 110.246C297.009 110.034 297.098 109.792 297.148 109.52L299.326 109.53C299.269 109.997 299.128 110.448 298.903 110.882C298.681 111.313 298.381 111.699 298.003 112.04C297.629 112.379 297.181 112.647 296.661 112.846C296.144 113.041 295.559 113.139 294.906 113.139C293.998 113.139 293.186 112.934 292.47 112.523C291.757 112.112 291.194 111.517 290.779 110.738C290.368 109.959 290.163 109.016 290.163 107.909C290.163 106.799 290.372 105.854 290.789 105.075C291.207 104.296 291.774 103.703 292.49 103.295C293.206 102.884 294.011 102.679 294.906 102.679C295.496 102.679 296.043 102.762 296.547 102.928C297.054 103.093 297.503 103.335 297.894 103.653C298.285 103.968 298.603 104.354 298.848 104.812C299.097 105.269 299.256 105.793 299.326 106.383ZM302.433 113H300.126L303.641 102.818H306.415L309.925 113H307.618L305.068 105.145H304.988L302.433 113ZM302.289 108.998H307.738V110.678H302.289V108.998ZM311.151 113V102.818H313.303V111.225H317.668V113H311.151ZM319.094 113V102.818H321.247V111.225H325.612V113H319.094ZM336.567 102.818H338.719V109.43C338.719 110.173 338.542 110.822 338.187 111.379C337.836 111.936 337.344 112.37 336.711 112.682C336.078 112.99 335.34 113.144 334.498 113.144C333.653 113.144 332.914 112.99 332.281 112.682C331.648 112.37 331.156 111.936 330.805 111.379C330.453 110.822 330.278 110.173 330.278 109.43V102.818H332.43V109.246C332.43 109.634 332.515 109.979 332.684 110.281C332.856 110.582 333.098 110.819 333.41 110.991C333.721 111.164 334.084 111.25 334.498 111.25C334.916 111.25 335.279 111.164 335.587 110.991C335.899 110.819 336.139 110.582 336.308 110.281C336.48 109.979 336.567 109.634 336.567 109.246V102.818ZM346.014 105.746C345.974 105.345 345.803 105.034 345.502 104.812C345.2 104.59 344.791 104.479 344.274 104.479C343.922 104.479 343.626 104.528 343.384 104.628C343.142 104.724 342.956 104.858 342.827 105.031C342.701 105.203 342.638 105.398 342.638 105.617C342.632 105.799 342.67 105.959 342.752 106.094C342.839 106.23 342.956 106.348 343.105 106.447C343.255 106.544 343.427 106.628 343.623 106.701C343.818 106.771 344.027 106.83 344.249 106.88L345.164 107.099C345.608 107.198 346.016 107.331 346.387 107.496C346.758 107.662 347.079 107.866 347.351 108.108C347.623 108.35 347.833 108.635 347.983 108.963C348.135 109.291 348.213 109.667 348.216 110.092C348.213 110.715 348.054 111.255 347.739 111.712C347.427 112.166 346.977 112.519 346.387 112.771C345.8 113.02 345.092 113.144 344.264 113.144C343.442 113.144 342.726 113.018 342.116 112.766C341.51 112.514 341.036 112.142 340.694 111.648C340.356 111.151 340.179 110.536 340.162 109.803H342.245C342.269 110.145 342.366 110.43 342.539 110.658C342.714 110.884 342.948 111.054 343.24 111.17C343.535 111.283 343.868 111.339 344.239 111.339C344.604 111.339 344.92 111.286 345.189 111.18C345.46 111.074 345.671 110.927 345.82 110.738C345.969 110.549 346.044 110.332 346.044 110.087C346.044 109.858 345.976 109.666 345.84 109.51C345.707 109.354 345.512 109.222 345.253 109.112C344.998 109.003 344.685 108.903 344.314 108.814L343.205 108.536C342.346 108.327 341.669 108 341.172 107.556C340.674 107.112 340.427 106.514 340.431 105.761C340.427 105.145 340.592 104.606 340.923 104.146C341.258 103.685 341.717 103.325 342.3 103.067C342.883 102.808 343.546 102.679 344.289 102.679C345.044 102.679 345.704 102.808 346.267 103.067C346.834 103.325 347.275 103.685 347.59 104.146C347.905 104.606 348.067 105.14 348.077 105.746H346.014Z" fill="#004566"/>
<path d="M274.177 138.663L271.263 128.481H273.615L275.3 135.555H275.385L277.244 128.481H279.258L281.112 135.57H281.202L282.887 128.481H285.239L282.325 138.663H280.227L278.288 132.006H278.209L276.275 138.663H274.177ZM286.391 138.663V128.481H293.252V130.256H288.544V132.682H292.899V134.457H288.544V136.888H293.271V138.663H286.391ZM307.187 132.045H305.009C304.97 131.764 304.888 131.513 304.766 131.295C304.643 131.073 304.486 130.884 304.294 130.728C304.101 130.572 303.879 130.453 303.627 130.37C303.379 130.287 303.109 130.246 302.817 130.246C302.29 130.246 301.831 130.377 301.44 130.638C301.049 130.897 300.745 131.275 300.53 131.772C300.315 132.266 300.207 132.866 300.207 133.572C300.207 134.298 300.315 134.907 300.53 135.401C300.749 135.895 301.054 136.268 301.445 136.52C301.836 136.772 302.288 136.898 302.802 136.898C303.09 136.898 303.357 136.86 303.602 136.783C303.851 136.707 304.071 136.596 304.264 136.45C304.456 136.301 304.615 136.12 304.741 135.908C304.87 135.696 304.96 135.454 305.009 135.182L307.187 135.192C307.131 135.66 306.99 136.111 306.764 136.545C306.542 136.976 306.242 137.362 305.865 137.703C305.49 138.041 305.043 138.31 304.522 138.508C304.005 138.704 303.42 138.802 302.767 138.802C301.859 138.802 301.047 138.596 300.331 138.185C299.619 137.774 299.055 137.179 298.641 136.401C298.23 135.622 298.024 134.679 298.024 133.572C298.024 132.461 298.233 131.517 298.651 130.738C299.068 129.959 299.635 129.366 300.351 128.958C301.067 128.547 301.872 128.342 302.767 128.342C303.357 128.342 303.904 128.424 304.408 128.59C304.915 128.756 305.364 128.998 305.755 129.316C306.146 129.631 306.464 130.017 306.71 130.474C306.958 130.932 307.117 131.455 307.187 132.045ZM310.294 138.663H307.987L311.502 128.481H314.276L317.786 138.663H315.48L312.929 130.807H312.85L310.294 138.663ZM310.15 134.66H315.599V136.341H310.15V134.66ZM327.528 128.481V138.663H325.669L321.239 132.254H321.165V138.663H319.012V128.481H320.901L325.296 134.884H325.385V128.481H327.528ZM332.547 138.663V128.481H334.7V132.682H339.07V128.481H341.218V138.663H339.07V134.457H334.7V138.663H332.547ZM342.992 138.663V128.481H349.853V130.256H345.145V132.682H349.5V134.457H345.145V136.888H349.873V138.663H342.992ZM351.565 138.663V128.481H353.717V136.888H358.082V138.663H351.565ZM359.508 138.663V128.481H363.525C364.297 128.481 364.955 128.628 365.499 128.923C366.042 129.215 366.457 129.621 366.742 130.141C367.03 130.658 367.174 131.255 367.174 131.931C367.174 132.607 367.028 133.204 366.737 133.721C366.445 134.238 366.022 134.641 365.469 134.929C364.919 135.217 364.253 135.361 363.47 135.361H360.91V133.636H363.122C363.537 133.636 363.878 133.565 364.146 133.423C364.418 133.277 364.62 133.076 364.753 132.821C364.889 132.562 364.957 132.266 364.957 131.931C364.957 131.593 364.889 131.298 364.753 131.046C364.62 130.791 364.418 130.594 364.146 130.455C363.875 130.312 363.53 130.241 363.112 130.241H361.661V138.663H359.508Z" fill="#004566"/>
</g>
<defs>
<linearGradient id="paint0_linear_1229_845" x1="197.312" y1="172.709" x2="192.646" y2="139.709" gradientUnits="userSpaceOnUse">
<stop offset="0.0099" stop-color="#FFB89E"/>
<stop offset="1" stop-color="#F4825C"/>
</linearGradient>
<linearGradient id="paint1_linear_1229_845" x1="236.217" y1="167.662" x2="235.981" y2="134.335" gradientUnits="userSpaceOnUse">
<stop offset="0.0099" stop-color="#FFB89E"/>
<stop offset="1" stop-color="#F4825C"/>
</linearGradient>
<clipPath id="clip0_1229_845">
<rect width="500" height="500" fill="white"/>
</clipPath>
</defs>
</svg>
